<svg width="329" height="48" viewBox="0 0 329 48" fill="none" xmlns="http://www.w3.org/2000/svg">
<path d="M317.264 37.55C314.631 37.55 312.281 37.0167 310.214 35.95C308.181 34.85 306.581 33.3333 305.414 31.4C304.248 29.4667 303.664 27.2833 303.664 24.85C303.664 22.4167 304.231 20.25 305.364 18.35C306.531 16.4167 308.098 14.9 310.064 13.8C312.031 12.7 314.248 12.15 316.714 12.15C319.114 12.15 321.231 12.6667 323.064 13.7C324.898 14.7333 326.331 16.1667 327.364 18C328.431 19.8333 328.964 21.9333 328.964 24.3C328.964 24.7333 328.931 25.2 328.864 25.7C328.831 26.1667 328.748 26.7167 328.614 27.35L307.664 27.4V22.15L325.364 22.1L322.064 24.3C322.031 22.9 321.814 21.75 321.414 20.85C321.014 19.9167 320.414 19.2167 319.614 18.75C318.848 18.25 317.898 18 316.764 18C315.564 18 314.514 18.2833 313.614 18.85C312.748 19.3833 312.064 20.15 311.564 21.15C311.098 22.15 310.864 23.3667 310.864 24.8C310.864 26.2333 311.114 27.4667 311.614 28.5C312.148 29.5 312.881 30.2833 313.814 30.85C314.781 31.3833 315.914 31.65 317.214 31.65C318.414 31.65 319.498 31.45 320.464 31.05C321.431 30.6167 322.281 29.9833 323.014 29.15L327.214 33.35C326.014 34.75 324.564 35.8 322.864 36.5C321.164 37.2 319.298 37.55 317.264 37.55Z" fill="#4A80D2"/>
<path d="M290.193 47.9C288.426 47.9 286.926 47.6 285.693 47C284.459 46.4333 283.376 45.6167 282.443 44.55L287.193 39.8C287.559 40.2333 287.943 40.5333 288.343 40.7C288.709 40.9 289.143 41 289.643 41C290.376 41 290.976 40.7833 291.443 40.35C291.943 39.9167 292.193 39.25 292.193 38.35V12.7H299.843V38.25C299.843 40.2167 299.426 41.9167 298.593 43.35C297.759 44.7833 296.609 45.9 295.143 46.7C293.709 47.5 292.059 47.9 290.193 47.9ZM296.093 9.35001C294.893 9.35001 293.893 8.95001 293.093 8.15001C292.326 7.31668 291.943 6.31668 291.943 5.15001C291.943 3.95001 292.326 2.95001 293.093 2.15001C293.893 1.35001 294.893 0.950012 296.093 0.950012C297.293 0.950012 298.276 1.35001 299.043 2.15001C299.809 2.95001 300.193 3.95001 300.193 5.15001C300.193 6.31668 299.809 7.31668 299.043 8.15001C298.276 8.95001 297.293 9.35001 296.093 9.35001Z" fill="#4A80D2"/>
<path d="M278.538 37.55C276.038 37.55 273.771 37 271.738 35.9C269.705 34.8 268.105 33.2833 266.938 31.35C265.771 29.4167 265.188 27.25 265.188 24.85C265.188 22.4167 265.771 20.25 266.938 18.35C268.138 16.4167 269.755 14.9 271.788 13.8C273.821 12.7 276.105 12.15 278.638 12.15C280.538 12.15 282.271 12.4833 283.838 13.15C285.438 13.7833 286.855 14.75 288.088 16.05L283.188 20.95C282.621 20.3167 281.955 19.85 281.188 19.55C280.455 19.25 279.605 19.1 278.638 19.1C277.538 19.1 276.555 19.35 275.688 19.85C274.855 20.3167 274.188 20.9833 273.688 21.85C273.221 22.6833 272.988 23.6667 272.988 24.8C272.988 25.9333 273.221 26.9333 273.688 27.8C274.188 28.6667 274.871 29.35 275.738 29.85C276.605 30.35 277.571 30.6 278.638 30.6C279.638 30.6 280.521 30.4333 281.288 30.1C282.088 29.7333 282.771 29.2333 283.338 28.6L288.188 33.5C286.921 34.8333 285.488 35.85 283.888 36.55C282.288 37.2167 280.505 37.55 278.538 37.55Z" fill="#4A80D2"/>
<path d="M247.202 37.5C244.968 37.5 242.968 36.95 241.202 35.85C239.468 34.75 238.085 33.25 237.052 31.35C236.052 29.45 235.552 27.2833 235.552 24.85C235.552 22.4167 236.052 20.25 237.052 18.35C238.085 16.45 239.468 14.95 241.202 13.85C242.968 12.75 244.968 12.2 247.202 12.2C248.835 12.2 250.302 12.5167 251.602 13.15C252.935 13.7833 254.018 14.6667 254.852 15.8C255.685 16.9 256.152 18.1667 256.252 19.6V30.1C256.152 31.5333 255.685 32.8167 254.852 33.95C254.052 35.05 252.985 35.9167 251.652 36.55C250.318 37.1833 248.835 37.5 247.202 37.5ZM248.752 30.6C250.385 30.6 251.702 30.0667 252.702 29C253.702 27.9 254.202 26.5167 254.202 24.85C254.202 23.7167 253.968 22.7167 253.502 21.85C253.068 20.9833 252.435 20.3167 251.602 19.85C250.802 19.35 249.868 19.1 248.802 19.1C247.735 19.1 246.785 19.35 245.952 19.85C245.152 20.3167 244.502 20.9833 244.002 21.85C243.535 22.7167 243.302 23.7167 243.302 24.85C243.302 25.95 243.535 26.9333 244.002 27.8C244.468 28.6667 245.118 29.35 245.952 29.85C246.785 30.35 247.718 30.6 248.752 30.6ZM253.902 37V30.45L255.052 24.55L253.902 18.65V12.7H261.402V37H253.902Z" fill="#4A80D2"/>
<path d="M224.014 37V0.700012H231.664V37H224.014Z" fill="#4A80D2"/>
<path d="M204.428 37.5C202.195 37.5 200.195 36.95 198.428 35.85C196.695 34.75 195.311 33.25 194.278 31.35C193.278 29.45 192.778 27.2833 192.778 24.85C192.778 22.4167 193.278 20.25 194.278 18.35C195.311 16.45 196.695 14.95 198.428 13.85C200.195 12.75 202.195 12.2 204.428 12.2C206.061 12.2 207.528 12.5167 208.828 13.15C210.161 13.7833 211.245 14.6667 212.078 15.8C212.911 16.9 213.378 18.1667 213.478 19.6V30.1C213.378 31.5333 212.911 32.8167 212.078 33.95C211.278 35.05 210.211 35.9167 208.878 36.55C207.545 37.1833 206.061 37.5 204.428 37.5ZM205.978 30.6C207.611 30.6 208.928 30.0667 209.928 29C210.928 27.9 211.428 26.5167 211.428 24.85C211.428 23.7167 211.195 22.7167 210.728 21.85C210.295 20.9833 209.661 20.3167 208.828 19.85C208.028 19.35 207.095 19.1 206.028 19.1C204.961 19.1 204.011 19.35 203.178 19.85C202.378 20.3167 201.728 20.9833 201.228 21.85C200.761 22.7167 200.528 23.7167 200.528 24.85C200.528 25.95 200.761 26.9333 201.228 27.8C201.695 28.6667 202.345 29.35 203.178 29.85C204.011 30.35 204.945 30.6 205.978 30.6ZM211.128 37V30.45L212.278 24.55L211.128 18.65V12.7H218.628V37H211.128Z" fill="#4A80D2"/>
<path d="M178.246 37V2.65001H185.896V37H178.246ZM172.746 19.2V12.7H191.396V19.2H172.746Z" fill="#4A80D2"/>
<path d="M160.745 37.6C159.312 37.6 157.895 37.4167 156.495 37.05C155.129 36.6833 153.845 36.1667 152.645 35.5C151.479 34.8 150.479 34 149.645 33.1L153.995 28.7C154.795 29.5667 155.745 30.25 156.845 30.75C157.945 31.2167 159.145 31.45 160.445 31.45C161.345 31.45 162.029 31.3167 162.495 31.05C162.995 30.7833 163.245 30.4167 163.245 29.95C163.245 29.35 162.945 28.9 162.345 28.6C161.779 28.2667 161.045 27.9833 160.145 27.75C159.245 27.4833 158.295 27.2 157.295 26.9C156.295 26.6 155.345 26.1833 154.445 25.65C153.545 25.1167 152.812 24.3833 152.245 23.45C151.679 22.4833 151.395 21.2667 151.395 19.8C151.395 18.2333 151.795 16.8833 152.595 15.75C153.395 14.5833 154.529 13.6667 155.995 13C157.462 12.3333 159.179 12 161.145 12C163.212 12 165.112 12.3667 166.845 13.1C168.612 13.8 170.045 14.85 171.145 16.25L166.795 20.65C166.029 19.75 165.162 19.1167 164.195 18.75C163.262 18.3833 162.345 18.2 161.445 18.2C160.579 18.2 159.929 18.3333 159.495 18.6C159.062 18.8333 158.845 19.1833 158.845 19.65C158.845 20.15 159.129 20.55 159.695 20.85C160.262 21.15 160.995 21.4167 161.895 21.65C162.795 21.8833 163.745 22.1667 164.745 22.5C165.745 22.8333 166.695 23.2833 167.595 23.85C168.495 24.4167 169.229 25.1834 169.795 26.15C170.362 27.0834 170.645 28.3167 170.645 29.85C170.645 32.2167 169.745 34.1 167.945 35.5C166.179 36.9 163.779 37.6 160.745 37.6Z" fill="#4A80D2"/>
<path d="M139.332 37V23.15C139.332 21.8833 138.932 20.8667 138.132 20.1C137.365 19.3 136.382 18.9 135.182 18.9C134.349 18.9 133.615 19.0833 132.982 19.45C132.349 19.7833 131.849 20.2833 131.482 20.95C131.115 21.5833 130.932 22.3167 130.932 23.15L127.982 21.7C127.982 19.8 128.399 18.1333 129.232 16.7C130.065 15.2667 131.215 14.1667 132.682 13.4C134.182 12.6 135.865 12.2 137.732 12.2C139.532 12.2 141.115 12.6333 142.482 13.5C143.882 14.3333 144.982 15.45 145.782 16.85C146.582 18.25 146.982 19.7833 146.982 21.45V37H139.332ZM123.282 37V12.7H130.932V37H123.282Z" fill="#4A80D2"/>
<path d="M109.334 37V1.70001H117.184V37H109.334Z" fill="#4A80D2"/>
<path d="M96.0703 37V23.15C96.0703 21.8833 95.6703 20.8667 94.8703 20.1C94.1036 19.3 93.1203 18.9 91.9203 18.9C91.087 18.9 90.3536 19.0833 89.7203 19.45C89.087 19.7833 88.587 20.2833 88.2203 20.95C87.8536 21.5833 87.6703 22.3167 87.6703 23.15L84.7203 21.7C84.7203 19.8 85.1203 18.1333 85.9203 16.7C86.7203 15.2667 87.837 14.1667 89.2703 13.4C90.7036 12.6 92.3536 12.2 94.2203 12.2C96.1203 12.2 97.787 12.6 99.2203 13.4C100.654 14.1667 101.754 15.25 102.52 16.65C103.32 18.0167 103.72 19.6167 103.72 21.45V37H96.0703ZM80.0203 37V0.700012H87.6703V37H80.0203Z" fill="#0A0A0A"/>
<path d="M66.9656 37.55C64.4656 37.55 62.199 37 60.1656 35.9C58.1323 34.8 56.5323 33.2833 55.3656 31.35C54.199 29.4167 53.6156 27.25 53.6156 24.85C53.6156 22.4167 54.199 20.25 55.3656 18.35C56.5656 16.4167 58.1823 14.9 60.2156 13.8C62.249 12.7 64.5323 12.15 67.0656 12.15C68.9656 12.15 70.699 12.4833 72.2656 13.15C73.8656 13.7833 75.2823 14.75 76.5156 16.05L71.6156 20.95C71.049 20.3167 70.3823 19.85 69.6156 19.55C68.8823 19.25 68.0323 19.1 67.0656 19.1C65.9656 19.1 64.9823 19.35 64.1156 19.85C63.2823 20.3167 62.6156 20.9833 62.1156 21.85C61.649 22.6833 61.4156 23.6667 61.4156 24.8C61.4156 25.9333 61.649 26.9333 62.1156 27.8C62.6156 28.6667 63.299 29.35 64.1656 29.85C65.0323 30.35 65.999 30.6 67.0656 30.6C68.0656 30.6 68.949 30.4333 69.7156 30.1C70.5156 29.7333 71.199 29.2333 71.7656 28.6L76.6156 33.5C75.349 34.8333 73.9156 35.85 72.3156 36.55C70.7156 37.2167 68.9323 37.55 66.9656 37.55Z" fill="#0A0A0A"/>
<path d="M39.823 37.55C37.1897 37.55 34.8397 37.0167 32.773 35.95C30.7397 34.85 29.1397 33.3333 27.973 31.4C26.8064 29.4667 26.223 27.2833 26.223 24.85C26.223 22.4167 26.7897 20.25 27.923 18.35C29.0897 16.4167 30.6564 14.9 32.623 13.8C34.5897 12.7 36.8064 12.15 39.273 12.15C41.673 12.15 43.7897 12.6667 45.623 13.7C47.4564 14.7333 48.8897 16.1667 49.923 18C50.9897 19.8333 51.523 21.9333 51.523 24.3C51.523 24.7333 51.4897 25.2 51.423 25.7C51.3897 26.1667 51.3064 26.7167 51.173 27.35L30.223 27.4V22.15L47.923 22.1L44.623 24.3C44.5897 22.9 44.373 21.75 43.973 20.85C43.573 19.9167 42.973 19.2167 42.173 18.75C41.4064 18.25 40.4564 18 39.323 18C38.123 18 37.073 18.2833 36.173 18.85C35.3064 19.3833 34.623 20.15 34.123 21.15C33.6564 22.15 33.423 23.3667 33.423 24.8C33.423 26.2333 33.673 27.4667 34.173 28.5C34.7064 29.5 35.4397 30.2833 36.373 30.85C37.3397 31.3833 38.473 31.65 39.773 31.65C40.973 31.65 42.0564 31.45 43.023 31.05C43.9897 30.6167 44.8397 29.9833 45.573 29.15L49.773 33.35C48.573 34.75 47.123 35.8 45.423 36.5C43.723 37.2 41.8564 37.55 39.823 37.55Z" fill="#0A0A0A"/>
<path d="M11.05 37V2.20001H18.9V37H11.05ZM0 8.55001V1.70001H29.95V8.55001H0Z" fill="#0A0A0A"/>
</svg>
