<svg width="46" height="46" viewBox="0 0 46 46" fill="none" xmlns="http://www.w3.org/2000/svg">
<path fill-rule="evenodd" clip-rule="evenodd" d="M11.8326 5.16044L9.13672 2.4646L2.46484 9.13647L5.16069 11.8323L11.8326 5.16044ZM33.918 5.16044L36.6138 2.4646L43.2857 9.13647L40.5898 11.8323L33.918 5.16044ZM22.8753 41.9375C12.3473 41.9375 3.81277 33.403 3.81277 22.875C3.81277 12.3471 12.3473 3.81252 22.8753 3.81252C33.4032 3.81252 41.9378 12.3471 41.9378 22.875C41.9378 33.403 33.4032 41.9375 22.8753 41.9375ZM22.8753 38.125C31.2976 38.125 38.1253 31.2974 38.1253 22.875C38.1253 14.4527 31.2976 7.62502 22.8753 7.62502C14.4529 7.62502 7.62527 14.4527 7.62527 22.875C7.62527 31.2974 14.4529 38.125 22.8753 38.125ZM32.4065 20.9688H24.7815V11.4375H20.969V24.7813H32.4065V20.9688Z" fill="white"/>
</svg>
