<svg width="46" height="46" viewBox="0 0 46 46" fill="none" xmlns="http://www.w3.org/2000/svg">
<path fill-rule="evenodd" clip-rule="evenodd" d="M23.0405 34.3125L11.4375 41.5643V34.3125H7.625C5.51941 34.3125 3.8125 32.6056 3.8125 30.5V7.625C3.8125 5.51941 5.51941 3.8125 7.625 3.8125H38.125C40.2306 3.8125 41.9375 5.51941 41.9375 7.625V30.5C41.9375 32.6056 40.2306 34.3125 38.125 34.3125H23.0405ZM15.25 34.6857L21.947 30.5H38.125V7.625H7.625V30.5H15.25V34.6857ZM29.1521 11.9958L20.9688 20.1792L16.5979 15.8083L13.9021 18.5042L20.9688 25.5708L31.8479 14.6917L29.1521 11.9958Z" fill="white"/>
</svg>
