<svg width="46" height="46" viewBox="0 0 46 46" fill="none" xmlns="http://www.w3.org/2000/svg">
<path fill-rule="evenodd" clip-rule="evenodd" d="M24.7812 36.2188V34.1774C28.5623 33.6365 31.832 31.5106 33.8957 28.4943C39.0694 27.7814 41.9375 23.2998 41.9375 17.1562V11.4375C41.9375 9.33191 40.2306 7.625 38.125 7.625H35.7087C35.0495 6.48544 33.8174 5.71875 32.4062 5.71875H13.3438C11.9326 5.71875 10.7005 6.48544 10.0413 7.625H7.625C5.51941 7.625 3.8125 9.33191 3.8125 11.4375V17.1562C3.8125 23.2998 6.68061 27.7814 11.8543 28.4943C13.918 31.5106 17.1877 33.6365 20.9688 34.1774V36.2188H19.0625C16.9569 36.2188 15.25 37.9257 15.25 40.0312H30.5C30.5 37.9257 28.7931 36.2188 26.6875 36.2188H24.7812ZM7.625 11.4375H9.53125V20.9688C9.53125 21.8413 9.61501 22.6944 9.77492 23.5202C8.36896 22.2548 7.625 20.0752 7.625 17.1562V11.4375ZM36.2188 11.4375V20.9688C36.2188 21.8413 36.135 22.6944 35.9751 23.5202C37.381 22.2548 38.125 20.0752 38.125 17.1562V11.4375H36.2188ZM13.3438 20.9688V9.53125H32.4062V20.9688C32.4062 26.2327 28.139 30.5 22.875 30.5C17.611 30.5 13.3438 26.2327 13.3438 20.9688Z" fill="white"/>
</svg>
