<svg width="46" height="46" viewBox="0 0 46 46" fill="none" xmlns="http://www.w3.org/2000/svg">
<path fill-rule="evenodd" clip-rule="evenodd" d="M41.9375 7.625H40.0312V26.6875C40.0312 28.7931 38.3243 30.5 36.2188 30.5H24.7812V33.2332L33.387 38.3967L31.4255 41.6658L24.7812 37.6793V41.9375H20.9688V37.6793L14.3245 41.6658L12.363 38.3967L20.9688 33.2332V30.5H9.53125C7.42566 30.5 5.71875 28.7931 5.71875 26.6875V7.625H3.8125V3.8125H41.9375V7.625ZM9.53125 7.625V26.6875H36.2188V7.625H9.53125ZM15.25 22.875H19.0625V15.25H15.25V22.875ZM24.7812 22.875H20.9688V11.4375H24.7812V22.875ZM26.6875 22.875H30.5V17.1562H26.6875V22.875Z" fill="white"/>
</svg>
