<svg width="46" height="46" viewBox="0 0 46 46" fill="none" xmlns="http://www.w3.org/2000/svg">
<path fill-rule="evenodd" clip-rule="evenodd" d="M22.875 41.9375C26.1624 41.9375 29.3315 41.1025 32.1384 39.539L40.2118 40.2118L39.539 32.1384C41.1025 29.3315 41.9375 26.1624 41.9375 22.875C41.9375 12.3471 33.4029 3.8125 22.875 3.8125C12.3471 3.8125 3.8125 12.3471 3.8125 22.875C3.8125 33.4029 12.3471 41.9375 22.875 41.9375ZM30.7192 35.9559L31.2465 35.6389L36.0382 36.0382L35.6389 31.2465L35.9559 30.7192C37.3683 28.3696 38.125 25.6801 38.125 22.875C38.125 14.4527 31.2973 7.625 22.875 7.625C14.4527 7.625 7.625 14.4527 7.625 22.875C7.625 31.2973 14.4527 38.125 22.875 38.125C25.6801 38.125 28.3696 37.3683 30.7192 35.9559ZM22.8756 32.4031C23.9288 32.4031 24.7825 31.5496 24.7825 30.4968C24.7825 29.4441 23.9288 28.5906 22.8756 28.5906C21.8225 28.5906 20.9688 29.4441 20.9688 30.4968C20.9688 31.5496 21.8225 32.4031 22.8756 32.4031ZM20.9688 26.6875H24.7812V24.7812C24.7812 24.7859 24.7903 24.776 24.8107 24.7535C24.8607 24.6984 24.9792 24.5678 25.2016 24.3914C25.3925 24.2399 25.4517 24.2006 25.9342 23.8948C27.5759 22.854 28.5938 21.0442 28.5938 19.0625C28.5938 15.9041 26.0334 13.3438 22.875 13.3438C19.7166 13.3438 17.1562 15.9041 17.1562 19.0625H20.9688C20.9688 18.0097 21.8222 17.1562 22.875 17.1562C23.9278 17.1562 24.7812 18.0097 24.7812 19.0625C24.7812 19.7246 24.443 20.3261 23.8929 20.6748C23.2756 21.0661 23.1732 21.134 22.8321 21.4046C21.6983 22.304 20.9688 23.3758 20.9688 24.7812V26.6875Z" fill="white"/>
</svg>
